<?xml version="1.0" encoding="iso-8859-1"?>
<!-- Generator: Adobe Illustrator 19.0.0, SVG Export Plug-In . SVG Version: 6.00 Build 0)  -->
<svg version="1.1" id="Capa_1" xmlns="http://www.w3.org/2000/svg" xmlns:xlink="http://www.w3.org/1999/xlink" x="0px" y="0px"
	 viewBox="0 0 297 297" style="enable-background:new 0 0 297 297;" xml:space="preserve">
<g>
	<path d="M225.982,119.09C237.179,106.511,244,89.955,244,71.83v-0.66C244,31.927,212.407,0,173.164,0h-49.662
		C84.259,0,52,31.927,52,71.17v0.66c0,18.373,6.999,35.142,18.47,47.781C59.117,130.206,52,145.284,52,162v77
		c0,31.981,26.352,58,58.333,58h77C219.314,297,245,270.981,245,239v-77C245,145.012,237.659,129.707,225.982,119.09z M196,221.069
		c-2,2.281-4.784,4.29-8.438,6.026s-8.282,2.604-13.802,2.604c-6.998,0-12.762-2.151-17.129-6.454
		c-4.368-4.302-6.632-9.888-6.632-16.756v-11.819c0-6.816,2.193-12.389,6.456-16.718c4.264-4.328,9.782-6.492,16.494-6.492
		c7.283,0,12.755,1.685,16.383,5.054c3.629,3.37,5.698,8.194,6.19,14.026L195.453,191h-12.324c-0.44-3-1.406-5.447-2.896-6.951
		c-1.49-1.502-3.765-2.367-6.823-2.367c-3.059,0-5.632,1.156-7.499,3.579c-1.866,2.424-2.911,5.497-2.911,9.332v11.897
		c0,3.939,1.032,7.108,2.872,9.506c1.841,2.398,4.475,3.596,7.793,3.596c2.41,0,3.998-0.194,5.373-0.583
		c1.373-0.389,2.962-0.907,2.962-1.556V209h-9v-9h23V221.069z M100,172h14v22h4.475l12.44-22h16.329l-17.534,25.816L148.761,229
		h-16.018l-12.675-23H114v23h-14V172z M68,71.83v-0.66C68,40.749,93.082,16,123.502,16h49.662C203.584,16,228,40.749,228,71.17v0.66
		c0,14.795-5.698,28.237-15.211,38.154c-7.732-3.824-16.261-5.984-25.456-5.984h-77c-9.463,0-18.562,2.293-26.46,6.329
		C74.164,100.38,68,86.796,68,71.83z"/>
</g>
<g>
</g>
<g>
</g>
<g>
</g>
<g>
</g>
<g>
</g>
<g>
</g>
<g>
</g>
<g>
</g>
<g>
</g>
<g>
</g>
<g>
</g>
<g>
</g>
<g>
</g>
<g>
</g>
<g>
</g>
</svg>
